{"title":"Olympus Has Fallen 2013 CAM XviD READNFO-THC","uid":8298826,"size":1455920137,"categoryP":"video","categoryS":"movies","magnet":"?xt=urn:btih:bdb34a1a8dc78eeff7a375ae3ff9b90fa9c04029&amp;dn=Olympus+Has+Fallen+2013+CAM+XviD+READNFO-THC&amp;tr=udp%3A%2F%2Ftracker.openbittorrent.com%3A80&amp;tr=udp%3A%2F%2Fopen.demonii.com%3A1337&amp;tr=udp%3A%2F%2Ftracker.coppersurfer.tk%3A6969&amp;tr=udp%3A%2F%2Fexodus.desync.com%3A6969","seeders":0,"leechers":1,"uploader":"Gh0stNet","files":3,"time":1364172890,"description":"Source: OWN\n &lt;a href=&quot;\nhttp://www.imdb.com/title/tt2302755/&quot; rel=&quot;nofollow&quot; target=&quot;_NEW&quot;&gt;\nhttp://www.imdb.com/title/tt2302755/&lt;/a&gt;\n\nFormat                           : AVI\nFormat/Info                      : Audio Video Interleave\nFile size                        : 1.35 GiB\nDuration                         : 1h 50mn\nOverall bit rate                 : 1 747 Kbps\nWriting library                  : VirtualDub build 35390/release\n\nVideo\nID                               : 0\nFormat                           : MPEG-4 Visual\nFormat profile                   : Advanced Simple@L5\nFormat settings, BVOP            : Yes\nFormat settings, QPel            : No\nFormat settings, GMC             : No warppoints\nFormat settings, Matrix          : Default (H.263)\nMuxing mode                      : Packed bitstream\nCodec ID                         : XVID\nCodec ID/Hint                    : XviD\nDuration                         : 1h 50mn\nBit rate                         : 1 610 Kbps\nWidth                            : 720 pixels\nHeight                           : 304 pixels\nDisplay aspect ratio             : 2.35:1\nFrame rate                       : 24.000 fps\nColor space                      : YUV\nChroma subsampling               : 4:2:0\nBit depth                        : 8 bits\nScan type                        : Progressive\nBits/(Pixel*Frame)               : 0.306\nStream size                      : 1.24 GiB (92%)\nWriting library                  : XviD 1.2.1 (UTC 2008-12-04)\n\nAudio\nID                               : 1\nFormat                           : AC-3\nFormat/Info                      : Audio Coding 3\nMode extension                   : CM (complete main)\nCodec ID                         : 2000\nDuration                         : 1h 50mn\nBit rate mode                    : Constant\nBit rate                         : 128 Kbps\nChannel(s)                       : 2 channels\nChannel positions                : Front: L R\nSampling rate                    : 48.0 KHz\nBit depth                        : 16 bits\nStream size                      : 101 MiB (7%)\nAlignment                        : Aligned on interleaves\nInterleave, duration             : 42 ms (1.00 video frame)\nInterleave, preload duration     : 512 ms\n\nWorkdone:\nFirst off, not a very good CAM this time around. Dark scenes are very dark and movie quality is not that great but it will have to do for now for a first source. There a slight head on the bottome left corner, but doesnt hurt the movie at all. Did what we can with the source files and cut video up in parts for dark scene to brighten them up more but there only so much you can do. Audio CAM is decent, clean it up a bit. Our rating V5 A5\n\nGot nothing good to say, dont download it\n\n\n","torrent":{"xt":"urn:btih:bdb34a1a8dc78eeff7a375ae3ff9b90fa9c04029","amp;dn":"Olympus+Has+Fallen+2013+CAM+XviD+READNFO-THC","amp;tr":["udp%3A%2F%2Ftracker.openbittorrent.com%3A80","udp%3A%2F%2Fopen.demonii.com%3A1337","udp%3A%2F%2Ftracker.coppersurfer.tk%3A6969","udp%3A%2F%2Fexodus.desync.com%3A6969"],"infoHash":"bdb34a1a8dc78eeff7a375ae3ff9b90fa9c04029","infoHashBuffer":{"type":"Buffer","data":[189,179,74,26,141,199,142,239,247,163,117,174,63,249,185,15,169,192,64,41]},"announce":[],"urlList":[]}}